<?xml version="1.0" encoding="UTF-8" standalone="no"?>
<!-- Created with Inkscape (http://www.inkscape.org/) -->

<svg
   version="1.1"
   id="svg1"
   width="668"
   height="720"
   viewBox="0 0 668 720"
   sodipodi:docname="logo.svg"
   inkscape:version="1.4.2 (ebf0e940d0, 2025-05-08)"
   xmlns:inkscape="http://www.inkscape.org/namespaces/inkscape"
   xmlns:sodipodi="http://sodipodi.sourceforge.net/DTD/sodipodi-0.dtd"
   xmlns="http://www.w3.org/2000/svg"
   xmlns:svg="http://www.w3.org/2000/svg">
  <sodipodi:namedview
     id="namedview1"
     pagecolor="#333333"
     bordercolor="#000000"
     borderopacity="0.25"
     inkscape:showpageshadow="2"
     inkscape:pageopacity="0.0"
     inkscape:pagecheckerboard="0"
     inkscape:deskcolor="#d1d1d1"
     inkscape:zoom="1.217795"
     inkscape:cx="312.03938"
     inkscape:cy="360.4876"
     inkscape:window-width="2238"
     inkscape:window-height="1430"
     inkscape:window-x="0"
     inkscape:window-y="0"
     inkscape:window-maximized="1"
     inkscape:current-layer="g1" />
  <defs
     id="defs1" />
  <g
     id="g1">
    <g
       id="g22">
      <path
         style="fill:#ffffff;fill-opacity:1;stroke:#ffffff;stroke-width:0.821156"
         d="m 544.01602,576.40006 c -8.02039,-1.95735 -13.97276,-4.4412 -16.83078,-7.02325 -3.61847,-3.26906 -6.69361,-9.77772 -9.86972,-20.88964 -1.2746,-4.45931 -2.57984,-8.53239 -2.90055,-9.05129 -0.93635,-1.51505 -6.93658,-3.84036 -12.47325,-4.83385 -7.35893,-1.32046 -10.47181,-0.24352 -17.81971,6.16493 -3.34356,2.91608 -6.67008,5.30195 -7.39227,5.30195 -0.7222,0 -4.539,-1.60144 -8.48179,-3.55876 -3.94279,-1.95731 -10.30963,-4.78538 -14.14854,-6.28461 -8.95693,-3.49798 -12.31734,-5.93269 -12.31734,-8.92424 0,-3.34137 4.31613,-9.59544 11.35386,-16.45172 7.03758,-6.85613 12.79228,-9.99663 22.12107,-12.07209 8.03529,-1.78768 10.57693,-1.02306 23.82978,7.16893 5.74238,3.54953 11.10779,6.45401 11.92314,6.4544 0.81534,3.8e-4 3.91957,-1.29263 6.89829,-2.87336 6.38878,-3.39036 9.892,-3.62924 15.0535,-1.02644 4.48826,2.26329 4.77251,3.7802 2.83724,15.14107 -0.82019,4.81495 -1.13456,9.43305 -0.80514,11.82814 1.46034,10.618 13.0376,19.51192 25.50985,19.59725 4.23377,0.029 5.57127,-0.34991 8.8113,-2.49602 14.81123,-9.81055 22.93806,-31.56768 20.29223,-54.32629 -0.51429,-4.42375 -1.45743,-9.80212 -2.09585,-11.95192 -1.87345,-6.3086 -7.34037,-10.57858 -18.63808,-14.5574 -3.49068,-1.22934 -6.67937,-2.65191 -7.08599,-3.16127 -0.4066,-0.50934 -1.34145,-3.02659 -2.07742,-5.59386 -1.72356,-6.01221 -3.49674,-7.35373 -14.35604,-10.8612 -35.13842,-11.34945 -43.28943,-9.22432 -36.53979,9.52665 3.40314,9.45413 8.58119,15.85322 15.72237,19.42984 4.00773,2.00724 5.85829,2.41752 17.28519,3.83219 11.82533,1.46401 17.31792,3.03812 19.79266,5.67237 2.13673,2.27445 1.9384,4.72724 -0.63968,7.91103 l -1.53831,1.89974 -6.07059,-1.80216 c -4.40525,-1.30777 -9.5904,-1.97811 -18.90119,-2.44353 -12.33447,-0.61657 -13.04048,-0.74791 -18.25842,-3.3964 -9.79815,-4.97327 -19.81399,-15.74373 -24.83055,-26.70135 -2.119,-4.62852 -2.13929,-4.85674 -1.74199,-19.60666 0.34347,-12.75131 0.78136,-16.6568 3.00828,-26.83039 8.42288,-38.47942 9.86786,-47.93023 10.653,-69.67571 0.93822,-25.98555 -0.0665,-44.79044 -3.18731,-59.6564 -3.13266,-14.92227 -6.24188,-25.83804 -11.69479,-41.05781 -5.44995,-15.21155 -6.68044,-17.46528 -14.73402,-26.98644 -15.98414,-18.89693 -23.46465,-31.24293 -28.22744,-46.58722 l -1.42674,-4.59654 3.05357,-5.81094 c 1.67946,-3.19602 6.15599,-9.62654 9.94786,-14.29006 3.79186,-4.66352 10.24112,-12.91336 14.33168,-18.33299 4.09058,-5.41964 9.54844,-12.3469 12.1286,-15.39392 2.58016,-3.04703 4.6912,-6.18795 4.6912,-6.97983 0,-1.87486 -5.4986,-3.33773 -12.87976,-3.42659 -6.38395,-0.0769 -9.23018,0.80252 -10.54418,3.25774 -0.51809,0.96807 -1.85,5.51011 -2.95979,10.09342 -3.63288,15.00337 -11.35376,30.3426 -17.34832,34.46624 -9.46802,6.51303 -20.11372,8.80444 -43.48237,9.35928 -10.03051,0.23815 -19.17544,0.19753 -20.32206,-0.0902 -1.15738,-0.29048 -3.03321,-1.95644 -4.21687,-3.74505 l -2.13209,-3.22182 0.95096,-8.8325 c 0.52303,-4.85788 1.10418,-9.08042 1.29144,-9.38341 0.18727,-0.303 0.89057,-5.51241 1.5629,-11.57646 0.67233,-6.06405 1.62618,-12.90819 2.11965,-15.20919 1.02546,-4.78153 0.26078,-4.69187 11.06405,-1.29724 7.43814,2.33723 16.99343,2.84131 21.92488,1.15661 6.44527,-2.20185 8.19916,-5.75703 14.60059,-29.595769 5.62203,-20.93624 9.14334,-26.647824 19.38322,-31.439641 5.0491,-2.36276 5.41655,-2.409323 20.23027,-2.563594 l 15.08777,-0.157125 6.53006,3.216448 c 7.42026,3.654931 15.37061,11.095858 27.71014,25.9346 3.94347,4.742177 10.50026,12.261041 14.57065,16.708587 8.50507,9.293134 9.7361,11.334654 10.37649,17.208254 0.54937,5.03881 1.84051,6.31871 6.37843,6.32288 4.15674,0.004 6.49104,1.43504 15.14855,9.28788 10.1073,9.16786 12.47651,12.72617 16.33399,24.53195 4.72067,14.44759 5.6114,19.48008 3.99954,22.59708 -1.79502,3.47116 -9.18807,9.98617 -15.18137,13.37831 -10.70868,6.06099 -12.86196,7.71263 -12.86196,9.86553 0,1.8426 0.3673,2.06509 3.77451,2.28637 2.16943,0.14089 9.43987,-0.99397 17.09718,-2.66875 7.32747,-1.60265 14.03021,-2.9139 14.89498,-2.9139 2.73765,0 8.2228,12.88533 12.32563,28.95454 0.90412,3.54107 3.10213,10.52636 4.88448,15.52284 4.75377,13.32635 4.83116,14.9445 1.23702,25.86779 -1.65803,5.0391 -2.89454,10.19768 -2.74778,11.4635 0.24129,2.08123 0.70366,2.38858 4.83104,3.21135 2.51032,0.50043 4.97972,1.16666 5.48756,1.48052 2.53289,1.56541 4.45282,22.36222 4.25737,46.11619 -0.12427,15.10361 0.0759,18.66986 1.22093,21.75206 2.40592,6.47624 4.69904,22.88198 5.16617,36.96062 0.43742,13.18307 0.37923,13.83745 -2.15388,24.22411 -1.43189,5.87126 -3.52745,16.40259 -4.65679,23.40295 -2.19695,13.618 -3.7672,18.06381 -9.48599,26.85748 -4.17049,6.41286 -4.54075,9.26616 -2.74445,21.14918 1.99183,13.17645 1.37599,29.71356 -1.52113,40.84722 -6.12577,23.5414 -20.87474,41.91126 -42.42355,52.83859 -3.6155,1.8334 -5.8267,2.33707 -11.08561,2.52504 -3.61309,0.12915 -8.04733,-0.12591 -9.85388,-0.5668 z m 66.86636,-125.28763 c 2.49844,-3.17625 4.02012,-9.15921 4.64795,-18.27481 0.77031,-11.18446 -0.0516,-17.20868 -2.4734,-18.12946 -1.02285,-0.38888 -9.9546,-1.83545 -19.84834,-3.21459 -9.89374,-1.37914 -27.59616,-3.85644 -39.33869,-5.50512 -25.05904,-3.51833 -39.29082,-4.12296 -41.03159,-1.74317 -2.60814,3.56552 -5.6797,21.13223 -4.46452,25.53323 1.17924,4.27085 4.85354,5.54709 26.19894,9.09993 4.29054,0.71414 15.56091,2.97127 25.04526,5.01583 17.23489,3.71536 45.58322,9.19859 48.18333,9.31979 0.75759,0.0353 2.14407,-0.91043 3.08106,-2.10163 z m 8.41124,-54.90214 c 0.75545,-0.29698 1.59435,-1.11538 1.86423,-1.81868 1.00803,-2.6269 -2.09351,-37.58712 -3.71464,-41.87095 -0.37637,-0.99455 -1.90112,-2.47263 -3.38834,-3.28463 -2.39697,-1.3087 -5.0564,-1.47884 -23.41909,-1.49827 -21.78832,-0.023 -23.85627,-0.35299 -21.87718,-3.49051 1.10378,-1.74984 2.75647,-2.32807 21.53524,-7.53459 16.92403,-4.69228 23.24124,-7.31477 24.55245,-10.19257 1.66827,-3.66146 1.9698,-9.15821 1.09846,-20.02448 -1.12342,-14.00996 -2.02158,-17.44413 -5.42498,-20.74283 -4.3042,-4.1718 -6.93212,-3.78615 -47.61715,6.98802 -12.64581,3.34885 -26.89937,7.05788 -31.67458,8.24229 -15.51119,3.84731 -18.04124,6.47857 -18.08702,18.81055 -0.0205,5.51913 0.3191,7.68663 1.52473,9.73229 l 1.55107,2.63178 6.91977,-0.11082 c 4.84091,-0.0775 11.47771,-1.1456 22.09147,-3.55526 17.84132,-4.05053 29.23386,-5.1747 30.08057,-2.96821 0.29699,0.77394 0.18882,1.75832 -0.24037,2.18751 -0.42918,0.42919 -7.53561,2.44264 -15.79205,4.47434 -20.95204,5.15575 -38.24209,9.97699 -41.12369,11.46711 -5.11812,2.64669 -6.8001,12.10452 -2.94931,16.58414 l 1.98056,2.30397 33.53445,0.65577 c 32.78962,0.6412 41.54008,1.33905 32.7133,2.6089 -2.25818,0.32487 -6.69242,1.09685 -9.85387,1.71552 -3.16145,0.61866 -15.12035,1.52393 -26.57533,2.01172 -29.27299,1.24651 -32.09303,1.94679 -33.83783,8.40258 -1.22552,4.53447 -0.45135,11.85945 1.53561,14.5294 2.01311,2.70508 5.32796,3.11347 27.26303,3.35878 9.25854,0.10355 23.85459,0.46902 32.43568,0.81216 17.00259,0.67991 42.70302,0.4366 44.89481,-0.42503 z m -86.52113,-105.2449 c 7.53885,-3.91288 24.79261,-12.71003 38.34169,-19.54923 26.55386,-13.40364 32.81699,-16.96499 34.12132,-19.40216 1.11474,-2.08291 -1.04298,-11.06205 -6.92607,-28.82221 -5.69803,-17.20147 -7.65454,-21.36224 -10.37146,-22.05622 -3.58412,-0.91549 -12.93162,0.70263 -33.35906,5.7747 -32.07302,7.96364 -60.111,17.93222 -61.6394,21.91516 -0.52858,1.37748 1.63236,8.74142 5.68464,19.3717 1.84053,4.82825 2.86999,6.47781 4.26048,6.8268 1.04074,0.2612 5.80587,-0.82399 11.02051,-2.50977 5.05284,-1.63347 9.52604,-2.7604 9.94044,-2.50429 0.83548,0.51636 2.10904,4.32845 2.83966,8.49983 0.45667,2.60732 0.31583,2.7872 -3.41379,4.35987 -2.13957,0.9022 -5.28625,2.2335 -6.99265,2.95846 -4.15328,1.76451 -6.88496,4.6344 -7.4697,7.84764 -0.26457,1.45388 -0.15594,6.62393 0.2414,11.489 1.30535,15.98267 3.2082,16.44797 23.72199,5.80072 z m -27.94998,-79.79756 c 11.37142,-10.33264 59.36213,-59.61035 61.56582,-63.21687 2.38307,-3.90012 2.32763,-5.61145 -0.31104,-9.6008 -4.3942,-6.64352 -15.7204,-16.81903 -18.72098,-16.81903 -0.78923,0 -6.4582,4.98852 -12.59774,11.08561 -6.13953,6.09708 -11.4723,11.08561 -11.85059,11.08561 -0.9493,0 -7.22494,-4.20555 -7.20863,-4.83078 0.007,-0.2787 3.28662,-4.33083 7.28741,-9.00472 8.81485,-10.29785 13.22828,-17.45276 13.22828,-21.44527 0,-2.4863 -0.76492,-3.61744 -5.56558,-8.23024 -7.4662,-7.174024 -15.53805,-13.148776 -17.7639,-13.148776 -3.26255,0 -8.4536,6.094453 -16.08696,18.886596 -7.31073,12.25148 -22.20486,33.05059 -43.42592,60.64272 -1.85848,2.41645 -3.37905,4.96747 -3.37905,5.66895 0,2.65048 16.98825,15.80395 20.41145,15.80395 0.96341,0 2.81303,-1.42239 4.38217,-3.36997 11.8327,-14.6866 17.71298,-20.26046 23.32987,-22.1142 2.432,-0.80263 3.11359,-0.77718 3.68818,0.13773 1.58948,2.53095 -1.92382,8.64919 -10.4776,18.24624 -12.72559,14.27769 -13.41476,15.22377 -13.41476,18.41553 0,2.65658 0.83697,3.80175 8.05134,11.01612 4.42824,4.42823 8.68523,8.05134 9.45999,8.05134 0.77476,0 5.00397,-3.26688 9.39824,-7.25974 z"
         id="path2" />
      <path
         style="display:inline;fill:#ffffff;fill-opacity:1;stroke:#ffffff;stroke-width:0.821156"
         d="m 557.69765,240.59512 c 0.41881,-2.83866 3.52136,-4.67706 13.87016,-8.21869 13.85545,-4.7417 17.78745,-4.18847 9.60638,1.35163 -3.91337,2.65007 -16.16252,7.48501 -21.01307,8.29419 -2.49659,0.41648 -2.71666,0.289 -2.46347,-1.42713 z"
         id="path3" />
      <path
         style="display:inline;fill:#ffffff;fill-opacity:1;stroke:#ffffff;stroke-width:0.821156"
         d="m 104.69742,541.97103 c -4.51636,-0.84621 -15.417205,-2.68497 -24.224106,-4.08613 -20.291796,-3.22838 -23.273328,-4.17339 -25.955723,-8.22677 -4.379319,-6.61759 -13.075226,-30.80093 -14.680968,-40.82779 -1.134218,-7.0825 2.357522,-17.65618 7.769438,-23.52742 3.888413,-4.21843 8.890006,-6.59215 16.78822,-7.96756 7.209462,-1.25547 10.642779,-0.51869 27.985798,6.00569 18.863411,7.09634 25.660971,8.46333 31.355771,6.30563 6.04327,-2.28973 7.51123,-6.97458 4.4345,-14.1523 -2.78296,-6.49237 -7.80498,-9.17113 -22.48898,-11.99568 -9.261068,-1.7814 -53.876568,-7.09374 -66.509549,-7.91923 l -8.044665,-0.52568 0.568482,-3.82098 c 2.308575,-15.51679 8.853119,-33.00572 13.682281,-36.56302 l 2.267215,-1.67009 7.997239,1.89572 c 4.398481,1.04265 11.69244,2.76757 16.2088,3.83314 18.023247,4.25233 31.393097,4.54236 39.445867,0.85568 3.81122,-1.74483 4.45695,-2.38649 4.92789,-4.8968 0.6893,-3.67433 -0.76947,-8.1247 -3.79134,-11.56642 -4.91119,-5.59353 -18.109048,-9.50546 -37.70837,-11.17701 -16.077118,-1.37115 -24.638418,-2.87675 -26.351597,-4.6342 -1.383765,-1.41954 -1.326829,-1.89912 1.297388,-10.92799 4.680436,-16.10351 7.753032,-23.81353 9.490157,-23.81353 0.8387,0 6.150212,1.46872 11.80336,3.26383 16.938294,5.3786 25.462122,6.89516 39.070412,6.95141 10.89073,0.045 12.20737,-0.1113 15.42953,-1.83184 4.16236,-2.22258 6.02034,-5.36294 4.21856,-7.13025 -0.64464,-0.6323 -6.34536,-2.12232 -12.66826,-3.31115 -6.32291,-1.18883 -14.45235,-2.8928 -18.06544,-3.78659 -10.817603,-2.67603 -52.98638,-16.31092 -58.51983,-18.92185 -7.605131,-3.58845 -7.899932,-4.30032 -7.353964,-17.75793 0.516796,-12.73856 2.47506,-21.78087 6.706887,-30.96912 3.069089,-6.66368 7.42131,-11.06198 25.503246,-25.77325 13.225004,-10.75973 17.651113,-14.81335 17.651113,-16.16565 0,-0.52711 -3.233302,-3.01435 -7.185117,-5.52722 -9.792114,-6.22658 -18.124879,-13.25359 -18.771516,-15.82999 -0.721696,-2.87547 4.116139,-12.45674 13.508503,-26.7534 8.305926,-12.64294 12.065546,-16.70339 18.069683,-19.51558 4.563653,-2.1375 5.587091,-4.18081 4.635281,-9.25439 -0.785345,-4.18625 1.151527,-8.60616 8.121014,-18.532 18.24533,-25.98472 26.91381,-32.294821 51.5131,-37.498255 19.49623,-4.123993 17.97277,-3.151503 17.97277,-11.472812 0,-6.446853 0.14776,-7.056778 2.07719,-8.574468 2.41314,-1.898177 22.07145,-10.359745 32.82195,-14.127626 4.06473,-1.424621 10.41406,-4.409985 14.10964,-6.634144 9.55057,-5.747956 12.44151,-6.876503 26.13562,-10.202649 12.17763,-2.957815 12.18725,-2.958733 20.58046,-1.964029 4.61843,0.547344 9.26565,0.776149 10.32717,0.508457 1.06151,-0.267692 6.82004,-3.983042 12.79673,-8.256333 11.68376,-8.353807 18.33882,-11.46683 31.83342,-14.8906441 23.06805,-5.8527693 46.81996,-4.4456576 62.85795,3.7238341 4.62438,2.355582 14.71765,12.089008 18.59788,17.934829 4.12921,6.22091 6.82339,15.145954 6.79839,22.521092 -0.0355,10.460676 -2.19185,16.369626 -10.70549,29.335178 -8.76798,13.352897 -12.72616,16.477659 -29.12351,22.99138 -6.6518,2.64239 -9.79336,3.03659 -16.60181,2.08323 -5.52092,-0.77308 -5.80939,-0.0812 -3.45878,8.29592 3.21641,11.46258 1.25041,20.36181 -7.07608,32.03032 -2.06767,2.8976 -5.11683,6.16648 -6.77589,7.2642 -3.876,2.56453 -31.34019,11.74556 -39.47856,13.19732 -3.43093,0.61203 -9.53817,1.12566 -13.57166,1.14142 l -7.33361,0.0286 -6.74303,4.53315 c -3.70867,2.49324 -12.75079,7.29679 -20.09361,10.67456 -27.37446,12.59254 -40.9527,22.16026 -51.25273,36.11456 -9.19229,12.45355 -13.91224,22.17093 -17.21995,35.45228 -3.46715,13.92151 -4.1048,22.33826 -3.93959,52.00086 0.12894,23.15281 -0.0568,28.25777 -1.17278,32.23905 -1.27592,4.55177 -1.25981,4.90325 0.42698,9.31109 0.96413,2.51941 1.74484,5.37929 1.73492,6.35528 -0.0595,5.85763 -8.1164,15.37095 -17.42423,20.57401 -3.04452,1.70189 -5.74898,3.43977 -6.00991,3.86195 -0.26093,0.4222 2.14985,3.61565 5.35729,7.09654 6.52615,7.08258 9.07516,11.82282 11.02078,20.49467 2.24521,10.00719 1.91072,12.31852 -3.19035,22.04528 -2.484,4.7365 -4.51636,9.3573 -4.51636,10.26844 0,0.96225 3.1837,5.0281 7.5957,9.70037 8.49133,8.99224 11.60528,14.39275 14.94596,25.92072 4.92745,17.0036 1.19568,29.84155 -12.96078,44.58723 l -6.70591,6.98504 -4.51682,-0.41202 c -5.40455,-0.493 -15.76014,-4.39095 -29.05957,-10.93831 l -9.76195,-4.80584 -3.48537,3.84972 c -5.48674,6.06029 -5.52988,8.27085 -0.36088,18.49187 2.35547,4.65764 4.05031,8.70081 3.76629,8.98483 -1.15442,1.15443 -9.62286,0.87496 -17.34819,-0.57249 z m 50.47223,-203.60067 c 0.49542,-0.9257 0.85004,-7.73919 0.85004,-16.33215 0,-17.92688 0.25512,-17.42079 -10.26614,-20.36466 -10.13356,-2.8354 -11.23707,-3.63884 -10.92349,-7.95321 l 0.25015,-3.4416 6.97982,-0.65755 c 11.04658,-1.04068 12.23356,-1.34367 15.02242,-3.83473 l 2.63244,-2.35136 0.23658,-10.94841 c 0.13011,-6.02163 -0.10283,-11.45299 -0.51764,-12.06968 -2.53004,-3.76132 -29.56789,-5.69333 -59.663344,-4.26328 -11.290899,0.53651 -21.121892,1.14396 -21.846651,1.34989 -0.72476,0.20592 -5.159003,-0.37139 -9.853875,-1.2829 -4.694872,-0.91152 -9.620405,-1.65843 -10.94563,-1.65979 -3.270822,-0.003 -9.288036,3.02059 -10.897131,5.47638 -2.82968,4.31864 -8.248993,32.44776 -7.263449,37.70117 0.302105,1.61035 1.332423,3.34389 2.405184,4.04679 1.774655,1.1628 22.309898,8.48674 46.223947,16.48587 5.948123,1.98962 17.218489,4.92646 25.045259,6.5263 14.85121,3.03568 19.82408,4.89648 31.46175,11.77266 6.30874,3.72755 9.73968,4.28552 11.06976,1.80026 z m 12.12704,-88.12299 c 2.39957,-2.59355 5.13653,-8.13198 5.6831,-11.50018 0.73678,-4.54017 -2.09686,-9.91794 -6.84788,-12.99614 -2.17445,-1.40884 -14.57726,-7.77264 -27.56179,-14.14178 -12.98453,-6.36915 -23.60824,-11.97736 -23.60824,-12.46272 0,-1.76351 2.59798,-4.53252 4.25257,-4.53252 0.93278,0 10.24221,3.85433 20.68763,8.56517 18.30817,8.25692 27.57414,11.60099 37.74013,13.62031 6.59741,1.31047 8.4407,0.71486 9.12814,-2.9495 1.63339,-8.70672 -4.34206,-17.47594 -22.80264,-33.46385 -6.02018,-5.21381 -12.30364,-10.98265 -13.96325,-12.81964 -3.35882,-3.7178 -4.0921,-7.44105 -1.46551,-7.44105 1.95302,0 6.62344,3.46939 29.65196,22.02671 12.54199,10.10686 19.12191,14.89462 20.48706,14.90704 4.08895,0.0372 17.19304,-16.876 16.01751,-20.67348 -0.7912,-2.55591 -55.88218,-57.51066 -67.70851,-67.54108 -5.19381,-4.4051 -11.02497,-8.937214 -12.95812,-10.07137 l -3.51484,-2.062112 -3.2411,2.14486 c -5.94848,3.936522 -18.65727,20.954772 -23.85801,31.948122 -3.817676,8.06983 -3.447896,10.0793 3.2414,17.61462 3.10975,3.50304 7.03285,7.6625 8.71801,9.24322 8.57499,8.04358 15.00658,17.24428 12.05433,17.24428 -0.36946,0 -7.05589,-3.65564 -14.85873,-8.12365 -20.923115,-11.98087 -26.416162,-13.24244 -30.580832,-7.02339 -4.594829,6.8614 -17.194705,32.72706 -16.950159,34.79615 0.158815,1.34371 1.665463,3.14126 4.348785,5.18846 4.527017,3.4538 28.787284,18.17694 42.289546,25.6648 4.74218,2.62984 14.44558,8.08514 21.56311,12.12289 13.9954,7.93954 27.91456,14.55309 30.64247,14.55946 0.93745,0.002 2.47369,-0.82745 3.41386,-1.84363 z m 64.99313,-79.08344 c 5.52536,-1.64085 11.85808,-7.55018 13.14933,-12.27019 1.21238,-4.43173 1.12159,-12.87108 -0.31801,-29.56163 -1.52795,-17.71477 -1.52155,-18.89605 0.11131,-20.52891 1.11323,-1.11322 1.52526,-1.15936 2.35717,-0.26394 0.55446,0.59681 3.30187,8.47551 6.10537,17.50823 7.32279,23.59369 8.50413,26.87008 10.0241,27.80139 0.97437,0.59701 3.41764,0.31436 8.62214,-0.99744 14.611,-3.68272 17.67696,-6.67406 15.85178,-15.46593 -1.16386,-5.6063 -12.17404,-38.376523 -18.35505,-54.631169 -2.52837,-6.649064 -6.27755,-18.032796 -8.33149,-25.297183 -4.37774,-15.483169 -5.778,-18.743962 -8.32345,-19.382831 -2.7367,-0.686868 -17.2036,1.97204 -20.84933,3.831951 -1.72477,0.879914 -4.08116,2.839075 -5.23641,4.353691 -2.54681,3.339035 -2.72641,8.150265 -0.86217,23.096525 1.63035,13.071076 1.61054,18.410888 -0.0707,19.056038 -3.57584,1.372176 -9.11047,-6.927374 -13.5083,-20.256562 -3.0272,-9.175041 -4.35574,-11.496188 -6.58002,-11.496188 -3.32049,0 -19.53908,5.829117 -22.80884,8.197719 -3.50125,2.536295 -5.89752,6.160358 -5.89752,8.919287 0,3.931434 4.16183,14.357585 13.326,33.384102 5.43829,11.2909 13.18312,27.73455 17.21075,36.54146 8.36331,18.28742 10.54743,22.3335 14.07381,26.07171 2.84558,3.01652 4.21176,3.20071 10.30951,1.38987 z m 79.58144,-35.29046 c 7.66983,-3.83706 13.48405,-9.17194 16.3446,-14.99713 2.03461,-4.14323 2.29751,-5.58148 2.28192,-12.48371 -0.0187,-8.30041 0.36061,-6.99643 -7.39306,-25.413026 -1.85601,-4.408412 -2.24707,-6.607673 -2.33618,-13.1385 -0.11849,-8.684362 0.96758,-11.77482 6.26198,-17.818824 2.81554,-3.214169 9.23278,-7.679842 11.03605,-7.679842 0.84591,0 1.07227,3.580621 1.07717,17.038993 0.007,18.460028 0.73947,25.1452 3.5285,32.191821 2.49504,6.303869 4.24734,6.40552 11.24916,0.652557 2.93395,-2.410652 8.14095,-6.451406 11.57111,-8.979461 8.32346,-6.134463 13.07141,-12.069443 16.38912,-20.486546 1.3922,-3.532054 1.68329,-6.120053 1.68329,-14.965792 0,-10.389882 -0.0745,-10.841977 -2.60863,-15.834657 -3.28171,-6.465485 -8.7657,-12.239766 -13.74696,-14.474656 -3.3253,-1.491924 -5.35273,-1.718049 -14.93329,-1.665549 -9.07734,0.04974 -12.12695,0.392018 -16.83371,1.889343 -23.19103,7.377576 -41.46839,26.936268 -41.46839,44.375542 0,4.046667 1.95314,7.549543 9.3314,16.735515 l 2.35157,2.927716 -4.74201,5.121937 c -2.6081,2.817067 -5.62254,7.045275 -6.69875,9.396031 -2.21003,4.827318 -2.26742,4.406588 3.16662,23.212478 3.82794,13.24758 5.51724,17.2977 7.21487,17.2977 0.81015,0 4.08328,-1.30587 7.27362,-2.90194 z"
         id="path4" />
      <path
         style="fill:#ffffff;fill-opacity:1;stroke:#ffffff;stroke-width:0.821156"
         d="m 96.075283,291.77332 c -0.903272,-0.20229 -7.000358,-1.47686 -13.549079,-2.83239 -6.548721,-1.35553 -13.291775,-2.82405 -14.984564,-3.26339 -3.045256,-0.79034 -3.063793,-0.82017 -1.753161,-2.82044 1.076293,-1.64263 2.004096,-2.02166 4.948755,-2.02166 6.76344,0 27.551105,2.50835 30.297466,3.65586 2.46661,1.03061 5.30504,4.76436 5.30504,6.97839 0,0.84876 -6.916719,1.05336 -10.264457,0.30363 z"
         id="path5" />
      <path
         style="fill:#ffffff;fill-opacity:1;stroke:#ffffff;stroke-width:0.821156"
         d="m 323.12499,704.60697 c -4.74218,-0.25601 -9.09224,-0.76949 -9.6668,-1.14107 -1.63002,-1.05413 -7.58335,-9.3981 -8.78125,-12.30747 -0.59307,-1.4404 -1.3347,-4.88132 -1.64807,-7.64649 -1.09582,-9.66965 -4.07165,-11.79297 -16.53988,-11.80154 -5.31442,-0.004 -7.06815,-0.32264 -8.66062,-1.57528 -1.09825,-0.86388 -4.7509,-6.45615 -8.11701,-12.42727 l -6.1202,-10.85659 -9.21771,-6.91985 c -5.06974,-3.80592 -9.97946,-7.88827 -10.91051,-9.0719 -2.48718,-3.16195 -4.72151,-4.49001 -6.56798,-3.90397 -1.41624,0.4495 -1.63357,1.24891 -1.63276,6.00599 5e-4,3.0181 0.76025,11.21503 1.68832,18.21539 0.92807,7.00035 1.89662,17.9012 2.15234,24.22411 0.4891,12.09356 -0.18029,16.81481 -2.85179,20.11398 l -1.45224,1.79344 -7.11339,-1.68943 c -11.65563,-2.76821 -27.04579,-8.08436 -37.15409,-12.83398 -7.65776,-3.59817 -9.65505,-4.89825 -10.35767,-6.74205 -0.47876,-1.25635 -1.40235,-7.08804 -2.05241,-12.95931 -2.07579,-18.74789 -4.34629,-24.81781 -12.35155,-33.02035 -8.8022,-9.01913 -18.83141,-12.3992 -43.36918,-14.61641 -14.97751,-1.35336 -18.71141,-2.24042 -21.08518,-5.00919 -0.73104,-0.8527 -6.314135,-9.86457 -12.406871,-20.02638 -6.092737,-10.16181 -12.844636,-21.33166 -15.004221,-24.82189 -4.574519,-7.39315 -4.462775,-7.82203 2.743365,-10.5292 6.767854,-2.54253 14.678111,-3.8761 29.388627,-4.95455 21.98441,-1.61173 33.02585,-0.23248 56.00378,6.99577 11.23314,3.53364 14.28875,3.6919 16.89913,0.87526 1.04587,-1.12851 4.05238,-6.7637 6.68114,-12.52264 6.92456,-15.16991 8.50229,-17.62627 11.8994,-18.52609 5.55125,-1.47041 16.96532,-0.0467 34.45693,4.29776 9.25854,2.2996 17.94227,4.68473 19.29718,5.3003 1.3549,0.61556 6.52819,4.90722 11.49618,9.53702 13.7545,12.81817 17.31427,14.86967 31.61452,18.21955 6.08296,1.42495 11.46418,1.7213 41.87897,2.30635 19.19453,0.36922 40.79628,0.46132 48.00389,0.20467 l 13.10476,-0.46663 8.63144,-5.18451 c 9.15912,-5.50144 25.54241,-12.91969 30.60289,-13.85676 l 3.03597,-0.56219 -0.16192,27.38669 c -0.15574,26.34159 -0.0901,27.63739 1.71881,33.95595 2.35373,8.22145 9.10142,22.23947 12.41007,25.78139 2.89483,3.09892 4.55756,3.0562 6.97224,-0.17918 1.68085,-2.25215 1.74398,-3.38013 2.25154,-40.23666 0.28722,-20.85575 0.56436,-38.01193 0.61587,-38.12484 0.57243,-1.2547 16.7942,4.00113 24.75976,8.02213 3.13648,1.58329 4.96926,3.10664 5.61589,4.66777 0.60563,1.4621 1.25604,12.61803 1.76222,30.22613 0.92823,32.28866 1.60972,37.54861 4.97907,38.42971 2.34796,0.61401 3.86841,-1.34313 8.38087,-10.78794 3.69055,-7.72447 4.11239,-9.22152 4.74337,-16.8337 0.38092,-4.59537 0.74552,-13.15898 0.81023,-19.03025 0.17471,-15.85281 -0.64004,-15.07148 10.62897,-10.19313 5.19381,2.2484 14.0623,5.96699 19.70775,8.26353 19.03148,7.7419 21.35006,9.2525 21.35006,13.90995 0,6.98412 -5.35922,26.31386 -9.65549,34.82556 -7.8456,15.54362 -23.7534,32.85391 -40.02446,43.55318 -9.70734,6.38319 -20.24256,8.78709 -38.59435,8.80636 -13.38427,0.014 -17.4059,-1.67777 -32.34755,-13.60797 -8.81722,-7.04012 -16.08404,-11.60378 -17.29011,-10.85839 -0.56107,0.34676 -0.86345,6.79848 -0.86345,18.42334 0,22.48187 1.21938,20.7828 -15.47244,21.55933 -14.07162,0.65464 -76.2688,0.60173 -88.8144,-0.0756 z M 387.1793,689.0441 c 11.1826,-0.70783 13.24347,-1.45124 15.14774,-5.46418 2.58241,-5.44204 2.57639,-7.47382 -0.26327,-88.85831 l -0.55157,-15.80808 -2.563,-2.563 c -2.25589,-2.25588 -3.33626,-2.64406 -9.01611,-3.23953 -9.31266,-0.97632 -71.52942,-0.9271 -75.08064,0.0594 -5.27808,1.46621 -6.45849,3.5954 -7.32526,13.21309 -0.99511,11.04176 -1.02382,20.64315 -0.0693,23.15387 0.41585,1.09375 2.66053,3.38663 4.98819,5.09529 l 4.23212,3.10666 -0.56017,4.19617 c -0.30808,2.3079 -2.00456,11.40182 -3.76993,20.20872 -3.74008,18.65806 -5.64629,32.25634 -5.64629,40.27871 v 5.70604 l 2.66876,0.0494 c 7.82795,0.14492 20.15128,-0.19382 21.78931,-0.59895 1.03195,-0.25523 2.37786,-1.43693 2.99092,-2.62601 1.78787,-3.46775 6.36114,-27.61211 9.48805,-50.09182 0.88756,-6.38069 2.14483,-12.61806 2.79394,-13.8608 2.16588,-4.14659 5.85624,-6.93283 9.76628,-7.37354 4.55412,-0.51332 12.06716,1.59146 15.13991,4.24143 l 2.28707,1.9724 -0.077,13.66272 c -0.0597,10.58848 -0.33684,13.91233 -1.23173,14.77206 -0.65355,0.62788 -4.69156,1.48373 -9.30366,1.97191 -4.98344,0.52749 -8.60912,1.32273 -9.33357,2.04718 -1.82255,1.82256 -2.56096,7.29914 -2.60007,19.28419 -0.029,8.87842 0.2288,11.40677 1.35781,13.31803 1.86891,3.16382 2.74524,3.4788 11.33435,4.0739 11.13243,0.77132 12.31694,0.77502 23.40708,0.073 z M 209.68784,678.19301 c 3.39587,-1.1838 3.8406,-3.00433 3.69103,-15.10933 -0.29768,-24.09126 -6.8449,-43.74594 -21.47085,-64.45524 -6.68598,-9.46687 -18.83823,-21.76775 -24.55366,-24.85398 -11.0148,-5.94778 -37.08254,-12.25972 -51.16075,-12.38786 -13.17065,-0.11988 -26.310511,3.87966 -26.935009,8.19852 -0.143679,0.99364 1.233635,3.81717 3.284625,6.73357 15.499204,22.03902 19.965944,28.14872 22.013254,30.11017 l 2.35038,2.25181 11.85294,-0.95652 c 9.90011,-0.79893 12.78391,-0.76071 17.50353,0.23203 16.3174,3.43222 25.33862,9.74151 34.70674,24.27332 4.78796,7.42706 5.88028,11.73214 6.57848,25.92724 0.33921,6.89638 1.04419,13.12675 1.60183,14.15645 1.20639,2.22762 4.39535,3.95551 10.169,5.50992 5.3834,1.44934 7.09665,1.51047 10.36846,0.3699 z m 85.598,-30.01593 c 2.77421,-2.77421 3.44588,-12.37443 2.80632,-40.11087 -0.32283,-14.00071 -0.82722,-27.82181 -1.12086,-30.71354 -0.53252,-5.24416 -0.54235,-5.26065 -3.81851,-6.40297 -10.10005,-3.52164 -39.74679,-6.42553 -44.69121,-4.37748 -2.82967,1.17209 -5.21115,4.60701 -6.56489,9.4689 -1.2176,4.3729 -2.69481,23.6907 -2.01785,26.3879 0.73472,2.92735 5.49811,4.8941 15.48801,6.39483 4.43155,0.66573 8.44707,1.60012 8.92336,2.07642 0.4763,0.4763 1.13476,5.94581 1.46325,12.15447 0.64533,12.19738 1.92526,21.68082 3.26365,24.18164 1.41551,2.64489 4.02778,3.14594 14.58713,2.79793 8.51124,-0.28052 10.40616,-0.58179 11.6816,-1.85723 z m -67.42,-58.58419 c 0.92942,-0.49742 3.1905,-5.08741 5.76426,-11.70148 2.32923,-5.98566 6.38892,-15.50202 9.02154,-21.14746 2.63262,-5.64545 5.04292,-11.6441 5.35622,-13.33033 0.52036,-2.80068 0.37975,-3.13807 -1.62557,-3.90049 -2.7846,-1.05871 -14.85589,-1.09091 -16.81048,-0.0448 -0.81164,0.43438 -1.96107,2.00484 -2.55428,3.48992 -0.59321,1.48507 -4.72232,10.75952 -9.17579,20.60988 -9.77179,21.61363 -9.91711,22.14736 -6.50989,23.9093 5.023,2.59749 13.58615,3.69314 16.53399,2.11551 z m -29.52877,-15.21927 c 3.55777,-3.21974 19.67992,-34.44584 19.67992,-38.11695 0,-2.4974 -3.4413,-3.51017 -10.82489,-3.18573 -8.50727,0.37381 -9.75843,1.42597 -16.02485,13.47618 -8.98961,17.28685 -12.12355,27.22015 -9.21164,29.19716 0.63923,0.434 4.20025,0.65275 7.91339,0.48611 5.17403,-0.23221 7.15224,-0.66596 8.46807,-1.85677 z"
         id="path6" />
      <path
         style="fill:#ffffff;fill-opacity:1;stroke:#ffffff;stroke-width:0.821156"
         d="m 272.58282,478.79203 c -1.68571,-1.64926 -33.40824,-20.31986 -43.56546,-25.64087 -5.91814,-3.10032 -11.32185,-6.28002 -12.00824,-7.06599 -3.61161,-4.13566 -3.68093,-5.56303 -4.83536,-99.55723 -1.01143,-82.35128 -0.97157,-83.4029 3.29925,-87.04256 1.32488,-1.12909 10.10683,-6.82534 19.51542,-12.65833 9.4086,-5.83299 22.65149,-14.37079 29.42864,-18.97289 14.10882,-9.58074 18.29045,-11.89006 21.53005,-11.89006 2.97088,0 5.75745,1.52977 23.62569,12.97009 14.3625,9.19574 33.78569,20.69731 34.95242,20.69731 0.74585,0 30.82631,-19.88443 41.16215,-27.20988 10.00201,-7.08885 11.18146,-7.55207 15.42082,-6.05634 1.81605,0.64074 15.40581,8.704 30.19945,17.91835 14.79365,9.21435 28.56374,17.71339 30.60022,18.88676 2.03647,1.17337 4.95907,3.42968 6.49466,5.01401 l 2.79201,2.88062 0.65899,17.89148 c 1.09876,29.83158 2.28795,138.09946 1.60312,145.95413 -0.61602,7.06558 -0.75411,7.45035 -3.5364,9.85388 -8.28983,7.16134 -52.72126,38.2215 -54.67569,38.2215 -0.69758,0 -8.86902,-4.56367 -18.15877,-10.14149 -9.28974,-5.57782 -24.15208,-14.29402 -33.02742,-19.36934 -14.74233,-8.43033 -16.30364,-9.13964 -18.06544,-8.20729 -1.06065,0.5613 -11.72074,7.19314 -23.6891,14.73743 -20.55155,12.95474 -47.84344,29.54994 -48.5968,29.54994 -0.18926,0 -0.69515,-0.34345 -1.12421,-0.76323 z m -1.27253,-31.77547 c 0.0962,-23.28209 -1.28837,-95.2919 -2.34697,-122.06378 -0.93272,-23.58827 -0.57635,-22.72785 -12.76257,-30.81328 -14.60862,-9.69266 -36.5069,-22.64538 -37.16493,-21.98287 -0.84287,0.8486 -0.39969,108.38466 0.5787,140.42321 0.7859,25.73479 0.83609,26.26045 2.68102,28.07587 1.67599,1.64919 8.67834,6.05541 39.24273,24.69341 8.4014,5.12313 8.63581,5.20935 9.15615,3.36797 0.29371,-1.03937 0.57085,-10.80461 0.61587,-21.70053 z m 20.91048,15.08913 c 5.70713,-3.726 15.45721,-10.07774 21.66685,-14.11499 6.20964,-4.03725 15.869,-10.49695 21.46525,-14.3549 l 10.17498,-7.01445 -0.48952,-10.27979 c -0.26923,-5.65389 -0.93091,-42.98234 -1.47039,-82.95212 -0.53949,-39.96978 -1.22692,-72.95516 -1.52762,-73.30084 -0.30069,-0.34568 -11.79292,6.24361 -25.53828,14.64286 -36.56341,22.34245 -40.84806,25.13979 -41.37104,27.01002 -0.52127,1.86416 0.9633,136.99737 1.70764,155.43727 l 0.47233,11.70148 h 2.26661 c 1.45303,0 5.99117,-2.43165 12.64319,-6.77454 z m 120.96703,-2.87405 c 0.37123,-2.59691 0.67496,-39.22136 0.67496,-81.38766 v -76.66601 l -3.69521,-3.31445 c -5.93016,-5.31912 -13.1987,-10.45883 -14.79081,-10.45883 -0.91239,0 -1.81424,0.98275 -2.37314,2.58601 -1.14994,3.29872 -1.15965,14.9273 -0.0159,19.04634 0.48204,1.73599 0.75048,3.2823 0.59652,3.43625 -0.15395,0.15396 -3.59895,-2.63807 -7.65555,-6.20451 -4.0566,-3.56643 -7.79445,-6.49845 -8.30632,-6.51559 -1.35454,-0.0453 -1.94255,3.03021 -1.37333,7.18312 0.57863,4.22163 -0.22809,5.07139 -4.83265,5.0905 -3.59076,0.0149 -4.24476,-0.7448 -3.14081,-3.6484 0.45094,-1.18606 1.38382,-6.45838 2.07306,-11.71626 0.68925,-5.25788 1.42285,-9.72945 1.63021,-9.93682 0.20738,-0.20736 2.97926,2.07778 6.15977,5.0781 3.1805,3.00033 6.31584,5.45514 6.96742,5.45514 0.70923,0 1.53543,-1.40064 2.05862,-3.48992 0.48066,-1.91945 1.42482,-4.71623 2.09814,-6.21506 0.67333,-1.49884 1.02101,-3.05397 0.77264,-3.45585 -0.24838,-0.40188 -5.52017,-3.76806 -11.71509,-7.4804 -6.19492,-3.71233 -14.48262,-8.90095 -18.41711,-11.53025 -3.93449,-2.62931 -7.68486,-4.78056 -8.33417,-4.78056 -1.93031,0 -2.41365,16.80922 -1.41671,49.26938 0.49241,16.03308 1.2542,45.5947 1.69286,65.6925 0.99594,45.63014 1.33747,53.70117 2.35172,55.5749 0.97557,1.80229 15.48047,9.55004 16.59243,8.86281 0.43111,-0.26644 0.78385,-2.69163 0.78385,-5.3893 0,-2.69766 0.57698,-6.27867 1.28216,-7.95781 1.15877,-2.75914 1.36645,-2.90362 2.15788,-1.50123 1.13515,2.01142 0.2663,10.44225 -1.41027,13.68438 -0.70165,1.35684 -1.05227,2.82856 -0.77914,3.27048 0.46724,0.75601 15.71092,9.94732 30.36388,18.30818 8.74314,4.98876 9.1652,4.95123 10.00008,-0.88918 z m 13.9466,0.20793 c 2.63658,-2.03091 10.84559,-8.01957 18.24223,-13.30812 7.39664,-5.28855 15.4862,-11.54253 17.97678,-13.89773 l 4.52835,-4.28219 -0.51672,-67.60466 c -0.50107,-65.55954 -1.23651,-88.75026 -2.8662,-90.37995 -1.26075,-1.26075 -5.20924,1.03911 -24.86079,14.4805 -17.5062,11.974 -18.37285,12.69158 -19.03103,15.75755 -0.84286,3.92628 -1.23399,159.47396 -0.40607,161.49014 0.85719,2.08747 1.61546,1.84079 6.93345,-2.25554 z M 279.21218,290.2421 c 10.17935,-5.80096 55.20267,-33.42268 57.66973,-35.38028 l 2.20482,-1.7495 -2.06016,-1.83504 c -3.03041,-2.69925 -48.15075,-28.56086 -50.87275,-29.15871 -3.08072,-0.67664 -4.0637,-0.13537 -28.48972,15.68801 -11.38933,7.3781 -23.71756,15.16347 -27.39607,17.30083 -6.49531,3.77404 -8.82841,6.34022 -7.919,8.71012 0.24319,0.63374 6.666,4.97395 14.2729,9.6449 7.6069,4.67096 18.05145,11.19689 23.2101,14.50208 5.15866,3.30519 10.15613,6.00943 11.1055,6.00943 0.94936,0 4.67296,-1.67933 8.27465,-3.73184 z m 141.21983,-1.13216 c 2.25818,-1.31182 12.23522,-7.87453 22.17122,-14.58381 12.77365,-8.6254 18.13832,-12.70487 18.31427,-13.92676 0.21039,-1.46108 -3.93589,-4.33794 -26.83435,-18.61878 -14.89576,-9.28988 -28.57289,-17.65068 -30.39363,-18.57955 -5.57209,-2.84267 -7.13312,-2.38006 -18.27094,5.41463 -18.42792,12.89657 -31.91081,23.24808 -31.91081,24.49958 0,1.51419 4.26631,4.65292 14.64875,10.7771 4.36318,2.57367 15.50821,9.18611 24.76675,14.69431 18.81555,11.19398 21.40272,12.64709 22.5818,12.68323 0.45163,0.0138 2.66876,-1.04813 4.92694,-2.35995 z"
         id="path7" />
      <path
         style="fill:#ffffff;fill-opacity:1;stroke:#ffffff;stroke-width:0.821156"
         d="m 382.43875,330.10482 c 0,-1.58073 0.16899,-2.22739 0.37553,-1.43703 0.20655,0.79037 0.20655,2.08369 0,2.87405 -0.20654,0.79036 -0.37553,0.1437 -0.37553,-1.43702 z"
         id="path8" />
      <path
         style="fill:#ffffff;fill-opacity:1;stroke:#ffffff;stroke-width:0.821156"
         d="m 370.09292,342.34278 c 0.21056,-0.63379 2.93868,-2.08533 6.06249,-3.22563 6.41004,-2.33988 7.6575,-3.94857 7.93076,-10.22725 0.20417,-4.69103 -0.68781,-5.35033 -6.9243,-5.11804 -5.82402,0.21693 -7.08761,-0.79545 -4.73146,-3.79082 1.37958,-1.75385 2.4131,-2.19265 5.15578,-2.18899 3.66534,0.005 9.28937,1.30977 9.89941,2.29683 1.09312,1.76871 3.87909,20.9357 3.14915,21.66564 -0.44773,0.44773 -5.33894,1.02254 -10.86936,1.27734 -8.4082,0.38739 -9.99259,0.27452 -9.67247,-0.68908 z"
         id="path9" />
      <path
         style="fill:#ffffff;fill-opacity:1;stroke:#ffffff;stroke-width:0.821156"
         d="m 332.56829,525.03766 c -14.50372,-6.50372 -21.81115,-8.4434 -32.0251,-8.50073 -6.50009,-0.0365 -25.05777,2.14407 -35.16479,4.13191 -8.73185,1.71738 -18.62094,2.11417 -18.62094,0.74716 0,-0.46166 1.42255,-3.69497 3.16123,-7.18512 1.73867,-3.49015 4.17286,-9.02475 5.4093,-12.29911 1.43909,-3.81103 2.69946,-5.95339 3.50242,-5.95339 0.68989,0 4.80033,0.96603 9.1343,2.14674 9.42912,2.56877 12.00239,2.39742 25.01913,-1.66604 14.28983,-4.46088 20.03697,-5.59623 28.90941,-5.71105 7.95097,-0.10289 8.34187,-0.0218 12.31735,2.55683 8.86696,5.75129 8.78011,5.73375 13.47427,2.72153 5.02263,-3.22302 10.53814,-4.97829 15.60199,-4.96521 2.0735,0.005 9.12803,1.26216 15.67675,2.79291 21.93316,5.1268 27.67302,5.46603 36.98704,2.18599 5.53313,-1.94856 6.45242,-1.51421 10.69817,5.0548 6.25914,9.68409 8.80268,16.88245 7.33213,20.75028 -1.08756,2.8605 -3.35118,2.68831 -16.48919,-1.25429 -14.69523,-4.4099 -20.36346,-5.20266 -33.19063,-4.64204 -12.90819,0.56416 -17.71469,1.78601 -29.86788,7.59262 -6.04592,2.88866 -10.38918,4.45849 -12.31734,4.452 -1.63811,-0.006 -5.93454,-1.33562 -9.54762,-2.95579 z"
         id="path10" />
      <path
         style="display:inline;fill:#ffffff;fill-opacity:1;stroke:#ffffff;stroke-width:0.821156"
         d="m 312.24467,320.18517 c -0.79036,-0.46035 -1.43702,-1.37291 -1.43702,-2.02792 0,-0.65501 -0.39133,-1.19093 -0.86962,-1.19093 -0.47829,0 -0.62568,-0.39471 -0.32752,-0.87714 0.29815,-0.48243 1.059,-0.67878 1.69077,-0.43635 0.73021,0.28021 1.14868,-0.1152 1.14868,-1.08536 0,-2.16392 -2.99972,-16.12372 -4.50485,-20.96426 -1.0388,-3.34081 -1.07347,-4.25675 -0.19438,-5.13583 0.87908,-0.87909 1.83286,-0.36478 5.34803,2.88381 l 4.27814,3.9537 -0.0112,7.3408 c -0.0137,8.97954 -0.49813,11.036 -2.59964,11.036 -1.18603,0 -1.53191,0.47645 -1.34125,1.8476 0.14129,1.01618 0.62642,2.11909 1.07806,2.4509 0.51257,0.37658 0.44511,0.60802 -0.17952,0.61587 -0.55037,0.007 -0.78798,0.56685 -0.52801,1.2443 0.55068,1.43506 0.3846,1.47199 -1.55065,0.34481 z"
         id="path12" />
      <path
         style="fill:#ffffff;fill-opacity:1;stroke:#ffffff;stroke-width:0.821156"
         d="m 311.79899,344.33679 c -1.48712,-0.73293 -3.0176,-1.92546 -3.40107,-2.65006 -1.69896,-3.21032 -3.28325,-20.39603 -1.99867,-21.68062 0.2852,-0.2852 1.30138,-0.11887 2.25818,0.36963 2.50481,1.27883 8.71947,7.42509 8.71947,8.62351 0,0.55877 -1.01619,1.50075 -2.25818,2.09327 -3.21665,1.53458 -3.3053,4.52079 -0.27602,9.29747 3.39608,5.35506 2.40947,6.63441 -3.04371,3.9468 z"
         id="path14" />
      <path
         style="fill:#ffffff;fill-opacity:1;stroke:#ffffff;stroke-width:0.821156"
         d="m 298.6828,370.68945 c 0.23397,-6.13151 0.81488,-11.53769 1.29092,-12.01373 0.47603,-0.47604 4.30935,-0.88994 8.51848,-0.91979 12.60922,-0.0894 15.47959,2.6247 16.11385,15.23676 l 0.36046,7.16757 -2.2941,0.87222 c -4.02415,1.52997 -4.47436,0.76441 -4.47436,-7.60847 0,-10.13684 -0.96987,-11.69975 -6.82964,-11.00575 -2.27272,0.26917 -4.39357,0.91228 -4.713,1.42913 -0.31944,0.51686 -0.98793,4.0937 -1.48554,7.94855 -0.94916,7.35286 -2.36324,10.04172 -5.28098,10.04172 -1.56866,0 -1.61511,-0.42933 -1.20609,-11.14821 z"
         id="path15" />
      <path
         style="fill:#ffffff;fill-opacity:1;stroke:#ffffff;stroke-width:0.821156"
         d="m 306.13698,415.68083 c -1.86649,-1.18681 -7.75057,-24.15912 -6.50668,-25.40301 0.35092,-0.35092 1.69638,0.54644 2.98989,1.99414 2.22673,2.49214 2.91614,4.21789 4.9037,12.27505 0.46295,1.8767 1.53726,4.27114 2.38737,5.32098 1.32461,1.63583 1.87818,1.79184 3.87105,1.09098 3.223,-1.13346 6.02749,-6.34491 6.04455,-11.23227 0.0158,-4.52215 -1.22031,-5.57169 -6.56197,-5.57169 -2.79437,0 -3.34988,-0.25557 -3.12363,-1.43703 0.15135,-0.79036 1.65566,-2.17606 3.3429,-3.07933 2.80544,-1.50191 3.25703,-1.53651 5.28208,-0.40477 2.66231,1.48789 5.96572,7.59831 6.57878,12.16896 1.03371,7.7069 -5.85105,14.93683 -14.19894,14.91081 -2.2185,-0.007 -4.4726,-0.29169 -5.0091,-0.63282 z"
         id="path16" />
      <path
         style="fill:#ffffff;fill-opacity:1;stroke:#ffffff;stroke-width:0.821156"
         d="m 312.13383,437.82911 c -0.60237,-0.97466 -3.78965,-12.6574 -3.78965,-13.89069 0,-1.82874 2.06698,-1.12929 5.60028,1.89509 3.59842,3.08011 4.40837,6.02142 2.59246,9.41447 -1.00495,1.87777 -3.81847,3.52707 -4.40309,2.58113 z"
         id="path17" />
      <path
         style="fill:#ffffff;fill-opacity:1;stroke:#ffffff;stroke-width:0.821156"
         d="m 391.42012,437.43339 c -0.5516,-0.66463 -1.55635,-4.10101 -2.23278,-7.63638 -0.67643,-3.53538 -1.77391,-7.25827 -2.43885,-8.2731 -1.65397,-2.52428 -7.11527,-4.12408 -9.84019,-2.88253 -1.53595,0.69983 -2.57053,0.6973 -4.12305,-0.0101 -2.00946,-0.91557 -3.59687,-4.29976 -2.52135,-5.37527 0.29163,-0.29163 4.98998,-0.13388 10.44078,0.35056 7.23339,0.64287 10.27773,1.24744 11.26986,2.23806 1.0569,1.0553 1.41808,3.31502 1.6235,10.15741 0.28865,9.61443 -0.4534,13.50924 -2.17792,11.43132 z"
         id="path19" />
      <path
         style="fill:#ffffff;fill-opacity:1;stroke:#ffffff;stroke-width:0.821156"
         d="m 384.50642,406.38764 c -1.20769,-0.6875 -1.43702,-2.04248 -1.43702,-8.49038 0,-7.99674 -0.3041,-8.66152 -3.96766,-8.67377 -2.94074,-0.01 -7.52853,-1.76912 -7.52853,-2.88698 0,-3.17786 12.45364,-5.05656 17.24428,-2.60139 2.36866,1.21391 2.40119,1.71678 0.83337,12.88335 -1.18583,8.4459 -2.63495,11.19774 -5.14444,9.76917 z"
         id="path20" />
      <path
         style="display:inline;fill:#ffffff;fill-opacity:1;stroke:#ffffff;stroke-width:0.821156"
         d="m 381.01651,373.86991 c -5.74351,-0.52681 -5.82911,-0.77968 -1.74274,-5.14833 3.19507,-3.41579 3.79563,-4.57383 3.79563,-7.31899 0,-3.70814 -1.37496,-5.47236 -4.86175,-6.23819 -3.68028,-0.80832 -4.65265,-2.45786 -2.38509,-4.04612 3.7635,-2.63606 7.05787,-1.31323 10.58657,4.25096 2.08172,3.28251 2.40684,4.58323 2.39715,9.5902 -0.0149,7.68397 -0.5564,9.52289 -2.75332,9.34978 -0.96351,-0.0759 -3.22991,-0.27362 -5.03645,-0.43931 z"
         id="path21" />
    </g>
  </g>
</svg>
